<?xml version="1.0" standalone="no"?>
<!DOCTYPE svg PUBLIC "-//W3C//DTD SVG 20010904//EN"
 "http://www.w3.org/TR/2001/REC-SVG-20010904/DTD/svg10.dtd">
<svg version="1.0" xmlns="http://www.w3.org/2000/svg"
 width="512.000000pt" height="512.000000pt" viewBox="0 0 512.000000 512.000000"
 preserveAspectRatio="xMidYMid meet">

<g transform="translate(0.000000,512.000000) scale(0.100000,-0.100000)"
fill="#000000" stroke="none">
<path d="M442 4460 c-106 -28 -187 -75 -267 -155 -81 -81 -127 -161 -155 -271
-19 -75 -20 -116 -20 -1474 0 -1358 1 -1399 20 -1474 28 -110 74 -190 155
-271 81 -81 161 -127 271 -155 76 -20 118 -20 2114 -20 1996 0 2038 0 2114 20
110 28 190 74 271 155 81 81 127 161 155 271 19 75 20 116 20 1474 0 1358 -1
1399 -20 1474 -28 109 -74 190 -155 271 -81 82 -160 127 -271 155 -76 20 -117
20 -2118 19 -1977 0 -2043 -1 -2114 -19z m4203 -325 c50 -25 105 -80 130 -130
20 -39 20 -68 20 -1445 0 -1377 0 -1406 -20 -1445 -25 -50 -80 -105 -130 -130
-39 -20 -72 -20 -2085 -20 -2013 0 -2046 0 -2085 20 -50 25 -105 80 -130 130
-20 39 -20 71 -23 1420 -2 953 1 1393 8 1423 21 86 97 166 181 190 22 7 750
10 2064 9 1997 -2 2031 -2 2070 -22z"/>
<path d="M1524 3620 c-219 -33 -400 -203 -445 -418 -16 -78 -7 -214 19 -287
80 -219 303 -367 532 -352 273 18 483 228 498 497 5 105 -9 176 -52 266 -99
206 -329 328 -552 294z m179 -342 c116 -64 142 -224 54 -325 -127 -145 -367
-55 -367 137 0 168 167 268 313 188z"/>
<path d="M3090 3509 c-14 -6 -36 -20 -48 -32 -78 -72 -68 -185 21 -251 28 -21
35 -21 672 -21 634 0 644 0 671 21 53 39 69 71 69 134 0 63 -16 95 -69 134
-27 21 -38 21 -659 23 -406 1 -641 -2 -657 -8z"/>
<path d="M3080 2648 c-66 -34 -93 -79 -88 -149 5 -65 32 -109 82 -133 30 -14
103 -16 664 -16 l629 0 33 23 c48 32 72 69 77 119 7 58 -23 118 -74 149 l-38
24 -620 3 -620 2 -45 -22z"/>
<path d="M1155 2343 c-167 -24 -322 -121 -414 -258 -71 -106 -93 -181 -98
-336 -5 -113 -3 -129 16 -166 42 -83 146 -112 224 -64 58 35 71 69 77 201 7
133 22 172 92 237 75 68 73 68 548 68 475 0 473 0 548 -68 70 -65 85 -104 92
-237 6 -132 19 -166 77 -201 77 -48 182 -19 223 62 25 48 27 198 5 304 -42
198 -190 362 -390 432 l-80 28 -445 1 c-245 1 -458 0 -475 -3z"/>
<path d="M3072 1793 c-49 -24 -75 -68 -80 -132 -5 -70 22 -115 88 -149 l45
-22 620 2 620 3 38 24 c51 31 81 91 74 149 -5 50 -29 87 -77 120 l-33 22 -631
0 c-561 0 -635 -2 -664 -17z"/>
</g>
</svg>
