<?xml version="1.0" standalone="no"?>
<!DOCTYPE svg PUBLIC "-//W3C//DTD SVG 20010904//EN"
 "http://www.w3.org/TR/2001/REC-SVG-20010904/DTD/svg10.dtd">
<svg version="1.0" xmlns="http://www.w3.org/2000/svg"
 width="512.000000pt" height="512.000000pt" viewBox="0 0 512.000000 512.000000"
 preserveAspectRatio="xMidYMid meet">

<g transform="translate(0.000000,512.000000) scale(0.100000,-0.100000)"
fill="#000000" stroke="none">
<path d="M430 2560 l0 -2130 1170 0 1170 0 0 210 0 210 -957 2 -958 3 0 1705
0 1705 958 3 957 2 0 210 0 210 -1170 0 -1170 0 0 -2130z"/>
<path d="M3475 3560 l-150 -150 320 -320 320 -320 -1238 0 -1237 0 0 -210 0
-210 1237 0 1238 0 -320 -320 -320 -320 153 -152 152 -153 577 578 578 577
-575 575 c-316 316 -577 575 -580 575 -3 0 -73 -68 -155 -150z"/>
</g>
</svg>
